<?xml version="1.0" encoding="UTF-8" standalone="no"?>
<!DOCTYPE svg PUBLIC "-//W3C//DTD SVG 1.1//EN"
 "http://www.w3.org/Graphics/SVG/1.1/DTD/svg11.dtd">
<!-- Generated by graphviz version 2.40.1 (20161225.0304)
 -->
<!-- Title: dependencies Pages: 1 -->
<svg width="504pt" height="284pt"
 viewBox="0.00 0.00 504.00 284.00" xmlns="http://www.w3.org/2000/svg" xmlns:xlink="http://www.w3.org/1999/xlink">
<g id="graph0" class="graph" transform="scale(1 1) rotate(0) translate(4 280)">
<title>dependencies</title>
<polygon fill="#ffffff" stroke="transparent" points="-4,4 -4,-280 500,-280 500,4 -4,4"/>
<text text-anchor="start" x="227.0091" y="-42.4" font-family="sans-serif" font-weight="bold" font-size="14.00" fill="#000000">Legend</text>
<polygon fill="#ffffb3" stroke="transparent" points="14,-10 14,-30 34,-30 34,-10 14,-10"/>
<text text-anchor="start" x="37.629" y="-15.4" font-family="sans-serif" font-size="14.00" fill="#000000"> &#160;Declarations</text>
<polygon fill="#8dd3c7" stroke="transparent" points="127,-10 127,-30 147,-30 147,-10 127,-10"/>
<text text-anchor="start" x="150.7251" y="-15.4" font-family="sans-serif" font-size="14.00" fill="#000000"> &#160;Module</text>
<polygon fill="#80b1d3" stroke="transparent" points="213,-10 213,-30 233,-30 233,-10 213,-10"/>
<text text-anchor="start" x="236.7812" y="-15.4" font-family="sans-serif" font-size="14.00" fill="#000000"> &#160;Bootstrap</text>
<polygon fill="#fdb462" stroke="transparent" points="310,-10 310,-30 330,-30 330,-10 310,-10"/>
<text text-anchor="start" x="333.6732" y="-15.4" font-family="sans-serif" font-size="14.00" fill="#000000"> &#160;Providers</text>
<polygon fill="#fb8072" stroke="transparent" points="406,-10 406,-30 426,-30 426,-10 406,-10"/>
<text text-anchor="start" x="429.7258" y="-15.4" font-family="sans-serif" font-size="14.00" fill="#000000"> &#160;Exports</text>
<g id="clust1" class="cluster">
<title>cluster_SharedModule</title>
<polygon fill="none" stroke="#000000" stroke-dasharray="1,5" points="103.5,-70 103.5,-268 392.5,-268 392.5,-70 103.5,-70"/>
</g>
<g id="clust2" class="cluster">
<title>cluster_SharedModule_declarations</title>
<polygon fill="none" stroke="#000000" points="116.5,-78 116.5,-130 382.5,-130 382.5,-78 116.5,-78"/>
</g>
<g id="clust6" class="cluster">
<title>cluster_SharedModule_exports</title>
<polygon fill="none" stroke="#000000" points="111.5,-208 111.5,-260 384.5,-260 384.5,-208 111.5,-208"/>
</g>
<!-- FooterComponent -->
<g id="node1" class="node">
<title>FooterComponent</title>
<polygon fill="#ffffb3" stroke="#000000" points="374.3809,-122 256.6191,-122 256.6191,-86 374.3809,-86 374.3809,-122"/>
<text text-anchor="middle" x="315.5" y="-99.8" font-family="Times,serif" font-size="14.00" fill="#000000">FooterComponent</text>
</g>
<!-- SharedModule -->
<g id="node3" class="node">
<title>SharedModule</title>
<polygon fill="#8dd3c7" stroke="#000000" points="364.9231,-187 361.9231,-191 340.9231,-191 337.9231,-187 266.0769,-187 266.0769,-151 364.9231,-151 364.9231,-187"/>
<text text-anchor="middle" x="315.5" y="-164.8" font-family="Times,serif" font-size="14.00" fill="#000000">SharedModule</text>
</g>
<!-- FooterComponent&#45;&gt;SharedModule -->
<g id="edge1" class="edge">
<title>FooterComponent&#45;&gt;SharedModule</title>
<path fill="none" stroke="#000000" d="M299.0963,-122.1061C299.0963,-122.1061 299.0963,-140.991 299.0963,-140.991"/>
<polygon fill="#000000" stroke="#000000" points="295.5964,-140.9909 299.0963,-150.991 302.5964,-140.991 295.5964,-140.9909"/>
</g>
<!-- FooterComponent&#45;&gt;SharedModule -->
<g id="edge2" class="edge">
<title>FooterComponent&#45;&gt;SharedModule</title>
<path fill="none" stroke="#000000" d="M331.9037,-122.1061C331.9037,-122.1061 331.9037,-140.991 331.9037,-140.991"/>
<polygon fill="#000000" stroke="#000000" points="328.4038,-140.9909 331.9037,-150.991 335.4038,-140.991 328.4038,-140.9909"/>
</g>
<!-- MenuComponent -->
<g id="node2" class="node">
<title>MenuComponent</title>
<polygon fill="#ffffb3" stroke="#000000" points="238.4916,-122 124.5084,-122 124.5084,-86 238.4916,-86 238.4916,-122"/>
<text text-anchor="middle" x="181.5" y="-99.8" font-family="Times,serif" font-size="14.00" fill="#000000">MenuComponent</text>
</g>
<!-- MenuComponent&#45;&gt;SharedModule -->
<g id="edge3" class="edge">
<title>MenuComponent&#45;&gt;SharedModule</title>
<path fill="none" stroke="#000000" d="M199.6653,-122.0225C199.6653,-139.3734 199.6653,-163 199.6653,-163 199.6653,-163 256.0397,-163 256.0397,-163"/>
<polygon fill="#000000" stroke="#000000" points="256.0397,-166.5001 266.0397,-163 256.0396,-159.5001 256.0397,-166.5001"/>
</g>
<!-- FooterComponent  -->
<g id="node4" class="node">
<title>FooterComponent </title>
<polygon fill="#fb8072" stroke="#000000" points="376.3814,-252 254.6186,-252 254.6186,-216 376.3814,-216 376.3814,-252"/>
<text text-anchor="middle" x="315.5" y="-229.8" font-family="Times,serif" font-size="14.00" fill="#000000">FooterComponent </text>
</g>
<!-- SharedModule&#45;&gt;FooterComponent  -->
<g id="edge4" class="edge">
<title>SharedModule&#45;&gt;FooterComponent </title>
<path fill="none" stroke="#000000" stroke-dasharray="5,2" d="M331.9037,-187.1061C331.9037,-187.1061 331.9037,-205.991 331.9037,-205.991"/>
<polygon fill="#000000" stroke="#000000" points="328.4038,-205.9909 331.9037,-215.991 335.4038,-205.991 328.4038,-205.9909"/>
</g>
<!-- SharedModule&#45;&gt;FooterComponent  -->
<g id="edge5" class="edge">
<title>SharedModule&#45;&gt;FooterComponent </title>
<path fill="none" stroke="#000000" stroke-dasharray="5,2" d="M299.0963,-187.1061C299.0963,-187.1061 299.0963,-205.991 299.0963,-205.991"/>
<polygon fill="#000000" stroke="#000000" points="295.5964,-205.9909 299.0963,-215.991 302.5964,-205.991 295.5964,-205.9909"/>
</g>
<!-- MenuComponent  -->
<g id="node5" class="node">
<title>MenuComponent </title>
<polygon fill="#fb8072" stroke="#000000" points="237.4926,-252 119.5074,-252 119.5074,-216 237.4926,-216 237.4926,-252"/>
<text text-anchor="middle" x="178.5" y="-229.8" font-family="Times,serif" font-size="14.00" fill="#000000">MenuComponent </text>
</g>
<!-- SharedModule&#45;&gt;MenuComponent  -->
<g id="edge6" class="edge">
<title>SharedModule&#45;&gt;MenuComponent </title>
<path fill="none" stroke="#000000" stroke-dasharray="5,2" d="M266.114,-175C221.2658,-175 162.0847,-175 162.0847,-175 162.0847,-175 162.0847,-205.9775 162.0847,-205.9775"/>
<polygon fill="#000000" stroke="#000000" points="158.5848,-205.9774 162.0847,-215.9775 165.5848,-205.9775 158.5848,-205.9774"/>
</g>
</g>
</svg>
