<?xml version="1.0" encoding="UTF-8" standalone="no"?>
<!DOCTYPE svg PUBLIC "-//W3C//DTD SVG 1.1//EN"
 "http://www.w3.org/Graphics/SVG/1.1/DTD/svg11.dtd">
<!-- Generated by graphviz version 2.40.1 (20161225.0304)
 -->
<!-- Title: dependencies Pages: 1 -->
<svg width="504pt" height="211pt"
 viewBox="0.00 0.00 504.00 211.00" xmlns="http://www.w3.org/2000/svg" xmlns:xlink="http://www.w3.org/1999/xlink">
<g id="graph0" class="graph" transform="scale(1 1) rotate(0) translate(4 207)">
<title>dependencies</title>
<polygon fill="#ffffff" stroke="transparent" points="-4,4 -4,-207 500,-207 500,4 -4,4"/>
<text text-anchor="start" x="227.0091" y="-42.4" font-family="sans-serif" font-weight="bold" font-size="14.00" fill="#000000">Legend</text>
<polygon fill="#ffffb3" stroke="transparent" points="14,-10 14,-30 34,-30 34,-10 14,-10"/>
<text text-anchor="start" x="37.629" y="-15.4" font-family="sans-serif" font-size="14.00" fill="#000000"> &#160;Declarations</text>
<polygon fill="#8dd3c7" stroke="transparent" points="127,-10 127,-30 147,-30 147,-10 127,-10"/>
<text text-anchor="start" x="150.7251" y="-15.4" font-family="sans-serif" font-size="14.00" fill="#000000"> &#160;Module</text>
<polygon fill="#80b1d3" stroke="transparent" points="213,-10 213,-30 233,-30 233,-10 213,-10"/>
<text text-anchor="start" x="236.7812" y="-15.4" font-family="sans-serif" font-size="14.00" fill="#000000"> &#160;Bootstrap</text>
<polygon fill="#fdb462" stroke="transparent" points="310,-10 310,-30 330,-30 330,-10 310,-10"/>
<text text-anchor="start" x="333.6732" y="-15.4" font-family="sans-serif" font-size="14.00" fill="#000000"> &#160;Providers</text>
<polygon fill="#fb8072" stroke="transparent" points="406,-10 406,-30 426,-30 426,-10 406,-10"/>
<text text-anchor="start" x="429.7258" y="-15.4" font-family="sans-serif" font-size="14.00" fill="#000000"> &#160;Exports</text>
<g id="clust1" class="cluster">
<title>cluster_ProfiloModule</title>
<polygon fill="none" stroke="#000000" stroke-dasharray="1,5" points="30,-70 30,-195 466,-195 466,-70 30,-70"/>
</g>
<g id="clust2" class="cluster">
<title>cluster_ProfiloModule_declarations</title>
<polygon fill="none" stroke="#000000" points="322,-78 322,-130 458,-130 458,-78 322,-78"/>
</g>
<g id="clust4" class="cluster">
<title>cluster_ProfiloModule_imports</title>
<polygon fill="none" stroke="#000000" points="38,-78 38,-130 314,-130 314,-78 38,-78"/>
</g>
<!-- ProfiloComponent -->
<g id="node1" class="node">
<title>ProfiloComponent</title>
<polygon fill="#ffffb3" stroke="#000000" points="450.2176,-122 329.7824,-122 329.7824,-86 450.2176,-86 450.2176,-122"/>
<text text-anchor="middle" x="390" y="-99.8" font-family="Times,serif" font-size="14.00" fill="#000000">ProfiloComponent</text>
</g>
<!-- ProfiloModule -->
<g id="node2" class="node">
<title>ProfiloModule</title>
<polygon fill="#8dd3c7" stroke="#000000" points="283.4358,-187 280.4358,-191 259.4358,-191 256.4358,-187 184.5642,-187 184.5642,-151 283.4358,-151 283.4358,-187"/>
<text text-anchor="middle" x="234" y="-164.8" font-family="Times,serif" font-size="14.00" fill="#000000">ProfiloModule</text>
</g>
<!-- ProfiloComponent&#45;&gt;ProfiloModule -->
<g id="edge1" class="edge">
<title>ProfiloComponent&#45;&gt;ProfiloModule</title>
<path fill="none" stroke="#000000" d="M390,-122.1061C390,-141.3391 390,-169 390,-169 390,-169 293.3594,-169 293.3594,-169"/>
<polygon fill="#000000" stroke="#000000" points="293.3594,-165.5001 283.3594,-169 293.3593,-172.5001 293.3594,-165.5001"/>
</g>
<!-- ProfiloRoutingModule -->
<g id="node3" class="node">
<title>ProfiloRoutingModule</title>
<polygon fill="#8dd3c7" stroke="#000000" points="305.5533,-122 302.5533,-126 281.5533,-126 278.5533,-122 162.4467,-122 162.4467,-86 305.5533,-86 305.5533,-122"/>
<text text-anchor="middle" x="234" y="-99.8" font-family="Times,serif" font-size="14.00" fill="#000000">ProfiloRoutingModule</text>
</g>
<!-- ProfiloRoutingModule&#45;&gt;ProfiloModule -->
<g id="edge2" class="edge">
<title>ProfiloRoutingModule&#45;&gt;ProfiloModule</title>
<path fill="none" stroke="#000000" d="M234,-122.1061C234,-122.1061 234,-140.991 234,-140.991"/>
<polygon fill="#000000" stroke="#000000" points="230.5001,-140.9909 234,-150.991 237.5001,-140.991 230.5001,-140.9909"/>
</g>
<!-- SharedModule -->
<g id="node4" class="node">
<title>SharedModule</title>
<polygon fill="#8dd3c7" stroke="#000000" points="144.4231,-122 141.4231,-126 120.4231,-126 117.4231,-122 45.5769,-122 45.5769,-86 144.4231,-86 144.4231,-122"/>
<text text-anchor="middle" x="95" y="-99.8" font-family="Times,serif" font-size="14.00" fill="#000000">SharedModule</text>
</g>
<!-- SharedModule&#45;&gt;ProfiloModule -->
<g id="edge3" class="edge">
<title>SharedModule&#45;&gt;ProfiloModule</title>
<path fill="none" stroke="#000000" d="M95,-122.1061C95,-141.3391 95,-169 95,-169 95,-169 174.6024,-169 174.6024,-169"/>
<polygon fill="#000000" stroke="#000000" points="174.6025,-172.5001 184.6024,-169 174.6024,-165.5001 174.6025,-172.5001"/>
</g>
</g>
</svg>
