<?xml version="1.0" encoding="UTF-8" standalone="no"?>
<!DOCTYPE svg PUBLIC "-//W3C//DTD SVG 1.1//EN"
 "http://www.w3.org/Graphics/SVG/1.1/DTD/svg11.dtd">
<!-- Generated by graphviz version 2.40.1 (20161225.0304)
 -->
<!-- Title: dependencies Pages: 1 -->
<svg width="536pt" height="211pt"
 viewBox="0.00 0.00 536.00 211.00" xmlns="http://www.w3.org/2000/svg" xmlns:xlink="http://www.w3.org/1999/xlink">
<g id="graph0" class="graph" transform="scale(1 1) rotate(0) translate(4 207)">
<title>dependencies</title>
<polygon fill="#ffffff" stroke="transparent" points="-4,4 -4,-207 532,-207 532,4 -4,4"/>
<text text-anchor="start" x="243.0091" y="-42.4" font-family="sans-serif" font-weight="bold" font-size="14.00" fill="#000000">Legend</text>
<polygon fill="#ffffb3" stroke="transparent" points="30,-10 30,-30 50,-30 50,-10 30,-10"/>
<text text-anchor="start" x="53.629" y="-15.4" font-family="sans-serif" font-size="14.00" fill="#000000"> &#160;Declarations</text>
<polygon fill="#8dd3c7" stroke="transparent" points="143,-10 143,-30 163,-30 163,-10 143,-10"/>
<text text-anchor="start" x="166.7251" y="-15.4" font-family="sans-serif" font-size="14.00" fill="#000000"> &#160;Module</text>
<polygon fill="#80b1d3" stroke="transparent" points="229,-10 229,-30 249,-30 249,-10 229,-10"/>
<text text-anchor="start" x="252.7812" y="-15.4" font-family="sans-serif" font-size="14.00" fill="#000000"> &#160;Bootstrap</text>
<polygon fill="#fdb462" stroke="transparent" points="326,-10 326,-30 346,-30 346,-10 326,-10"/>
<text text-anchor="start" x="349.6732" y="-15.4" font-family="sans-serif" font-size="14.00" fill="#000000"> &#160;Providers</text>
<polygon fill="#fb8072" stroke="transparent" points="422,-10 422,-30 442,-30 442,-10 422,-10"/>
<text text-anchor="start" x="445.7258" y="-15.4" font-family="sans-serif" font-size="14.00" fill="#000000"> &#160;Exports</text>
<g id="clust1" class="cluster">
<title>cluster_RegistrazioneModule</title>
<polygon fill="none" stroke="#000000" stroke-dasharray="1,5" points="8,-70 8,-195 520,-195 520,-70 8,-70"/>
</g>
<g id="clust2" class="cluster">
<title>cluster_RegistrazioneModule_declarations</title>
<polygon fill="none" stroke="#000000" points="338,-78 338,-130 512,-130 512,-78 338,-78"/>
</g>
<g id="clust4" class="cluster">
<title>cluster_RegistrazioneModule_imports</title>
<polygon fill="none" stroke="#000000" points="16,-78 16,-130 330,-130 330,-78 16,-78"/>
</g>
<!-- RegistrazioneComponent -->
<g id="node1" class="node">
<title>RegistrazioneComponent</title>
<polygon fill="#ffffb3" stroke="#000000" points="504.3047,-122 345.6953,-122 345.6953,-86 504.3047,-86 504.3047,-122"/>
<text text-anchor="middle" x="425" y="-99.8" font-family="Times,serif" font-size="14.00" fill="#000000">RegistrazioneComponent</text>
</g>
<!-- RegistrazioneModule -->
<g id="node2" class="node">
<title>RegistrazioneModule</title>
<polygon fill="#8dd3c7" stroke="#000000" points="299.0226,-187 296.0226,-191 275.0226,-191 272.0226,-187 162.9774,-187 162.9774,-151 299.0226,-151 299.0226,-187"/>
<text text-anchor="middle" x="231" y="-164.8" font-family="Times,serif" font-size="14.00" fill="#000000">RegistrazioneModule</text>
</g>
<!-- RegistrazioneComponent&#45;&gt;RegistrazioneModule -->
<g id="edge1" class="edge">
<title>RegistrazioneComponent&#45;&gt;RegistrazioneModule</title>
<path fill="none" stroke="#000000" d="M425,-122.1061C425,-141.3391 425,-169 425,-169 425,-169 309.1244,-169 309.1244,-169"/>
<polygon fill="#000000" stroke="#000000" points="309.1244,-165.5001 299.1244,-169 309.1243,-172.5001 309.1244,-165.5001"/>
</g>
<!-- RegistrazioneRoutingModule -->
<g id="node3" class="node">
<title>RegistrazioneRoutingModule</title>
<polygon fill="#8dd3c7" stroke="#000000" points="321.64,-122 318.64,-126 297.64,-126 294.64,-122 140.36,-122 140.36,-86 321.64,-86 321.64,-122"/>
<text text-anchor="middle" x="231" y="-99.8" font-family="Times,serif" font-size="14.00" fill="#000000">RegistrazioneRoutingModule</text>
</g>
<!-- RegistrazioneRoutingModule&#45;&gt;RegistrazioneModule -->
<g id="edge2" class="edge">
<title>RegistrazioneRoutingModule&#45;&gt;RegistrazioneModule</title>
<path fill="none" stroke="#000000" d="M231,-122.1061C231,-122.1061 231,-140.991 231,-140.991"/>
<polygon fill="#000000" stroke="#000000" points="227.5001,-140.9909 231,-150.991 234.5001,-140.991 227.5001,-140.9909"/>
</g>
<!-- SharedModule -->
<g id="node4" class="node">
<title>SharedModule</title>
<polygon fill="#8dd3c7" stroke="#000000" points="122.4231,-122 119.4231,-126 98.4231,-126 95.4231,-122 23.5769,-122 23.5769,-86 122.4231,-86 122.4231,-122"/>
<text text-anchor="middle" x="73" y="-99.8" font-family="Times,serif" font-size="14.00" fill="#000000">SharedModule</text>
</g>
<!-- SharedModule&#45;&gt;RegistrazioneModule -->
<g id="edge3" class="edge">
<title>SharedModule&#45;&gt;RegistrazioneModule</title>
<path fill="none" stroke="#000000" d="M73,-122.1061C73,-141.3391 73,-169 73,-169 73,-169 152.6178,-169 152.6178,-169"/>
<polygon fill="#000000" stroke="#000000" points="152.6179,-172.5001 162.6178,-169 152.6178,-165.5001 152.6179,-172.5001"/>
</g>
</g>
</svg>
