<?xml version="1.0" encoding="UTF-8" standalone="no"?>
<!DOCTYPE svg PUBLIC "-//W3C//DTD SVG 1.1//EN"
 "http://www.w3.org/Graphics/SVG/1.1/DTD/svg11.dtd">
<!-- Generated by graphviz version 2.40.1 (20161225.0304)
 -->
<!-- Title: dependencies Pages: 1 -->
<svg width="603pt" height="211pt"
 viewBox="0.00 0.00 603.00 211.00" xmlns="http://www.w3.org/2000/svg" xmlns:xlink="http://www.w3.org/1999/xlink">
<g id="graph0" class="graph" transform="scale(1 1) rotate(0) translate(4 207)">
<title>dependencies</title>
<polygon fill="#ffffff" stroke="transparent" points="-4,4 -4,-207 599,-207 599,4 -4,4"/>
<text text-anchor="start" x="276.5091" y="-42.4" font-family="sans-serif" font-weight="bold" font-size="14.00" fill="#000000">Legend</text>
<polygon fill="#ffffb3" stroke="transparent" points="63.5,-10 63.5,-30 83.5,-30 83.5,-10 63.5,-10"/>
<text text-anchor="start" x="87.129" y="-15.4" font-family="sans-serif" font-size="14.00" fill="#000000"> &#160;Declarations</text>
<polygon fill="#8dd3c7" stroke="transparent" points="176.5,-10 176.5,-30 196.5,-30 196.5,-10 176.5,-10"/>
<text text-anchor="start" x="200.2251" y="-15.4" font-family="sans-serif" font-size="14.00" fill="#000000"> &#160;Module</text>
<polygon fill="#80b1d3" stroke="transparent" points="262.5,-10 262.5,-30 282.5,-30 282.5,-10 262.5,-10"/>
<text text-anchor="start" x="286.2812" y="-15.4" font-family="sans-serif" font-size="14.00" fill="#000000"> &#160;Bootstrap</text>
<polygon fill="#fdb462" stroke="transparent" points="359.5,-10 359.5,-30 379.5,-30 379.5,-10 359.5,-10"/>
<text text-anchor="start" x="383.1732" y="-15.4" font-family="sans-serif" font-size="14.00" fill="#000000"> &#160;Providers</text>
<polygon fill="#fb8072" stroke="transparent" points="455.5,-10 455.5,-30 475.5,-30 475.5,-10 455.5,-10"/>
<text text-anchor="start" x="479.2258" y="-15.4" font-family="sans-serif" font-size="14.00" fill="#000000"> &#160;Exports</text>
<g id="clust1" class="cluster">
<title>cluster_HomeModule</title>
<polygon fill="none" stroke="#000000" stroke-dasharray="1,5" points="8,-70 8,-195 587,-195 587,-70 8,-70"/>
</g>
<g id="clust2" class="cluster">
<title>cluster_HomeModule_declarations</title>
<polygon fill="none" stroke="#000000" points="295,-78 295,-130 579,-130 579,-78 295,-78"/>
</g>
<g id="clust5" class="cluster">
<title>cluster_HomeModule_imports</title>
<polygon fill="none" stroke="#000000" points="16,-78 16,-130 287,-130 287,-78 16,-78"/>
</g>
<!-- CaroselloComponent -->
<g id="node1" class="node">
<title>CaroselloComponent</title>
<polygon fill="#ffffb3" stroke="#000000" points="571.4846,-122 436.5154,-122 436.5154,-86 571.4846,-86 571.4846,-122"/>
<text text-anchor="middle" x="504" y="-99.8" font-family="Times,serif" font-size="14.00" fill="#000000">CaroselloComponent</text>
</g>
<!-- HomeModule -->
<g id="node3" class="node">
<title>HomeModule</title>
<polygon fill="#8dd3c7" stroke="#000000" points="331.7619,-187 328.7619,-191 307.7619,-191 304.7619,-187 238.2381,-187 238.2381,-151 331.7619,-151 331.7619,-187"/>
<text text-anchor="middle" x="285" y="-164.8" font-family="Times,serif" font-size="14.00" fill="#000000">HomeModule</text>
</g>
<!-- CaroselloComponent&#45;&gt;HomeModule -->
<g id="edge1" class="edge">
<title>CaroselloComponent&#45;&gt;HomeModule</title>
<path fill="none" stroke="#000000" d="M504,-122.1061C504,-141.3391 504,-169 504,-169 504,-169 341.981,-169 341.981,-169"/>
<polygon fill="#000000" stroke="#000000" points="341.981,-165.5001 331.981,-169 341.981,-172.5001 341.981,-165.5001"/>
</g>
<!-- HomeComponent -->
<g id="node2" class="node">
<title>HomeComponent</title>
<polygon fill="#ffffb3" stroke="#000000" points="418.5451,-122 303.4549,-122 303.4549,-86 418.5451,-86 418.5451,-122"/>
<text text-anchor="middle" x="361" y="-99.8" font-family="Times,serif" font-size="14.00" fill="#000000">HomeComponent</text>
</g>
<!-- HomeComponent&#45;&gt;HomeModule -->
<g id="edge2" class="edge">
<title>HomeComponent&#45;&gt;HomeModule</title>
<path fill="none" stroke="#000000" d="M317.5544,-122.1061C317.5544,-122.1061 317.5544,-140.991 317.5544,-140.991"/>
<polygon fill="#000000" stroke="#000000" points="314.0544,-140.9909 317.5544,-150.991 321.0544,-140.991 314.0544,-140.9909"/>
</g>
<!-- HomeRoutingModule -->
<g id="node4" class="node">
<title>HomeRoutingModule</title>
<polygon fill="#8dd3c7" stroke="#000000" points="279.3795,-122 276.3795,-126 255.3795,-126 252.3795,-122 140.6205,-122 140.6205,-86 279.3795,-86 279.3795,-122"/>
<text text-anchor="middle" x="210" y="-99.8" font-family="Times,serif" font-size="14.00" fill="#000000">HomeRoutingModule</text>
</g>
<!-- HomeRoutingModule&#45;&gt;HomeModule -->
<g id="edge3" class="edge">
<title>HomeRoutingModule&#45;&gt;HomeModule</title>
<path fill="none" stroke="#000000" d="M258.7795,-122.1061C258.7795,-122.1061 258.7795,-140.991 258.7795,-140.991"/>
<polygon fill="#000000" stroke="#000000" points="255.2795,-140.9909 258.7795,-150.991 262.2795,-140.991 255.2795,-140.9909"/>
</g>
<!-- SharedModule -->
<g id="node5" class="node">
<title>SharedModule</title>
<polygon fill="#8dd3c7" stroke="#000000" points="122.4231,-122 119.4231,-126 98.4231,-126 95.4231,-122 23.5769,-122 23.5769,-86 122.4231,-86 122.4231,-122"/>
<text text-anchor="middle" x="73" y="-99.8" font-family="Times,serif" font-size="14.00" fill="#000000">SharedModule</text>
</g>
<!-- SharedModule&#45;&gt;HomeModule -->
<g id="edge4" class="edge">
<title>SharedModule&#45;&gt;HomeModule</title>
<path fill="none" stroke="#000000" d="M73,-122.1061C73,-141.3391 73,-169 73,-169 73,-169 228.2133,-169 228.2133,-169"/>
<polygon fill="#000000" stroke="#000000" points="228.2133,-172.5001 238.2133,-169 228.2132,-165.5001 228.2133,-172.5001"/>
</g>
</g>
</svg>
