<?xml version="1.0" encoding="UTF-8" standalone="no"?>
<!DOCTYPE svg PUBLIC "-//W3C//DTD SVG 1.1//EN"
 "http://www.w3.org/Graphics/SVG/1.1/DTD/svg11.dtd">
<!-- Generated by graphviz version 2.40.1 (20161225.0304)
 -->
<!-- Title: dependencies Pages: 1 -->
<svg width="1224pt" height="284pt"
 viewBox="0.00 0.00 1224.00 284.00" xmlns="http://www.w3.org/2000/svg" xmlns:xlink="http://www.w3.org/1999/xlink">
<g id="graph0" class="graph" transform="scale(1 1) rotate(0) translate(4 280)">
<title>dependencies</title>
<polygon fill="#ffffff" stroke="transparent" points="-4,4 -4,-280 1220,-280 1220,4 -4,4"/>
<text text-anchor="start" x="587.0091" y="-42.4" font-family="sans-serif" font-weight="bold" font-size="14.00" fill="#000000">Legend</text>
<polygon fill="#ffffb3" stroke="transparent" points="374,-10 374,-30 394,-30 394,-10 374,-10"/>
<text text-anchor="start" x="397.629" y="-15.4" font-family="sans-serif" font-size="14.00" fill="#000000"> &#160;Declarations</text>
<polygon fill="#8dd3c7" stroke="transparent" points="487,-10 487,-30 507,-30 507,-10 487,-10"/>
<text text-anchor="start" x="510.7251" y="-15.4" font-family="sans-serif" font-size="14.00" fill="#000000"> &#160;Module</text>
<polygon fill="#80b1d3" stroke="transparent" points="573,-10 573,-30 593,-30 593,-10 573,-10"/>
<text text-anchor="start" x="596.7812" y="-15.4" font-family="sans-serif" font-size="14.00" fill="#000000"> &#160;Bootstrap</text>
<polygon fill="#fdb462" stroke="transparent" points="670,-10 670,-30 690,-30 690,-10 670,-10"/>
<text text-anchor="start" x="693.6732" y="-15.4" font-family="sans-serif" font-size="14.00" fill="#000000"> &#160;Providers</text>
<polygon fill="#fb8072" stroke="transparent" points="766,-10 766,-30 786,-30 786,-10 766,-10"/>
<text text-anchor="start" x="789.7258" y="-15.4" font-family="sans-serif" font-size="14.00" fill="#000000"> &#160;Exports</text>
<g id="clust1" class="cluster">
<title>cluster_AppModule</title>
<polygon fill="none" stroke="#000000" stroke-dasharray="1,5" points="8,-70 8,-268 1208,-268 1208,-70 8,-70"/>
</g>
<g id="clust2" class="cluster">
<title>cluster_AppModule_declarations</title>
<polygon fill="none" stroke="#000000" points="285,-78 285,-130 1200,-130 1200,-78 285,-78"/>
</g>
<g id="clust9" class="cluster">
<title>cluster_AppModule_imports</title>
<polygon fill="none" stroke="#000000" points="16,-78 16,-130 277,-130 277,-78 16,-78"/>
</g>
<g id="clust11" class="cluster">
<title>cluster_AppModule_bootstrap</title>
<polygon fill="none" stroke="#000000" points="516,-208 516,-260 640,-260 640,-208 516,-208"/>
</g>
<!-- AppComponent -->
<g id="node1" class="node">
<title>AppComponent</title>
<polygon fill="#ffffb3" stroke="#000000" points="1191.9399,-122 1086.0601,-122 1086.0601,-86 1191.9399,-86 1191.9399,-122"/>
<text text-anchor="middle" x="1139" y="-99.8" font-family="Times,serif" font-size="14.00" fill="#000000">AppComponent</text>
</g>
<!-- AppModule -->
<g id="node7" class="node">
<title>AppModule</title>
<polygon fill="#8dd3c7" stroke="#000000" points="619.6571,-187 616.6571,-191 595.6571,-191 592.6571,-187 536.3429,-187 536.3429,-151 619.6571,-151 619.6571,-187"/>
<text text-anchor="middle" x="578" y="-164.8" font-family="Times,serif" font-size="14.00" fill="#000000">AppModule</text>
</g>
<!-- AppComponent&#45;&gt;AppModule -->
<g id="edge1" class="edge">
<title>AppComponent&#45;&gt;AppModule</title>
<path fill="none" stroke="#000000" d="M1139,-122.2921C1139,-144.2057 1139,-178 1139,-178 1139,-178 629.7079,-178 629.7079,-178"/>
<polygon fill="#000000" stroke="#000000" points="629.7079,-174.5001 619.7079,-178 629.7078,-181.5001 629.7079,-174.5001"/>
</g>
<!-- BetaPlayCanzoneComponent -->
<g id="node2" class="node">
<title>BetaPlayCanzoneComponent</title>
<polygon fill="#ffffb3" stroke="#000000" points="1068.3571,-122 887.6429,-122 887.6429,-86 1068.3571,-86 1068.3571,-122"/>
<text text-anchor="middle" x="978" y="-99.8" font-family="Times,serif" font-size="14.00" fill="#000000">BetaPlayCanzoneComponent</text>
</g>
<!-- BetaPlayCanzoneComponent&#45;&gt;AppModule -->
<g id="edge2" class="edge">
<title>BetaPlayCanzoneComponent&#45;&gt;AppModule</title>
<path fill="none" stroke="#000000" d="M978,-122.1061C978,-141.3391 978,-169 978,-169 978,-169 629.675,-169 629.675,-169"/>
<polygon fill="#000000" stroke="#000000" points="629.6751,-165.5001 619.675,-169 629.675,-172.5001 629.6751,-165.5001"/>
</g>
<!-- DettaglioComponent -->
<g id="node3" class="node">
<title>DettaglioComponent</title>
<polygon fill="#ffffb3" stroke="#000000" points="869.9313,-122 736.0687,-122 736.0687,-86 869.9313,-86 869.9313,-122"/>
<text text-anchor="middle" x="803" y="-99.8" font-family="Times,serif" font-size="14.00" fill="#000000">DettaglioComponent</text>
</g>
<!-- DettaglioComponent&#45;&gt;AppModule -->
<g id="edge3" class="edge">
<title>DettaglioComponent&#45;&gt;AppModule</title>
<path fill="none" stroke="#000000" d="M803,-122.027C803,-138.3976 803,-160 803,-160 803,-160 629.7935,-160 629.7935,-160"/>
<polygon fill="#000000" stroke="#000000" points="629.7935,-156.5001 619.7935,-160 629.7934,-163.5001 629.7935,-156.5001"/>
</g>
<!-- HighlightDirective -->
<g id="node4" class="node">
<title>HighlightDirective</title>
<polygon fill="#ffffb3" stroke="#000000" points="717.7521,-122 596.2479,-122 596.2479,-86 717.7521,-86 717.7521,-122"/>
<text text-anchor="middle" x="657" y="-99.8" font-family="Times,serif" font-size="14.00" fill="#000000">HighlightDirective</text>
</g>
<!-- HighlightDirective&#45;&gt;AppModule -->
<g id="edge4" class="edge">
<title>HighlightDirective&#45;&gt;AppModule</title>
<path fill="none" stroke="#000000" d="M607.9762,-122.1061C607.9762,-122.1061 607.9762,-140.991 607.9762,-140.991"/>
<polygon fill="#000000" stroke="#000000" points="604.4762,-140.9909 607.9762,-150.991 611.4762,-140.991 604.4762,-140.9909"/>
</g>
<!-- ImageUploadComponent -->
<g id="node5" class="node">
<title>ImageUploadComponent</title>
<polygon fill="#ffffb3" stroke="#000000" points="577.5253,-122 420.4747,-122 420.4747,-86 577.5253,-86 577.5253,-122"/>
<text text-anchor="middle" x="499" y="-99.8" font-family="Times,serif" font-size="14.00" fill="#000000">ImageUploadComponent</text>
</g>
<!-- ImageUploadComponent&#45;&gt;AppModule -->
<g id="edge5" class="edge">
<title>ImageUploadComponent&#45;&gt;AppModule</title>
<path fill="none" stroke="#000000" d="M556.9671,-122.1061C556.9671,-122.1061 556.9671,-140.991 556.9671,-140.991"/>
<polygon fill="#000000" stroke="#000000" points="553.4671,-140.9909 556.9671,-150.991 560.4671,-140.991 553.4671,-140.9909"/>
</g>
<!-- ListaComponent -->
<g id="node6" class="node">
<title>ListaComponent</title>
<polygon fill="#ffffb3" stroke="#000000" points="402.8259,-122 293.1741,-122 293.1741,-86 402.8259,-86 402.8259,-122"/>
<text text-anchor="middle" x="348" y="-99.8" font-family="Times,serif" font-size="14.00" fill="#000000">ListaComponent</text>
</g>
<!-- ListaComponent&#45;&gt;AppModule -->
<g id="edge6" class="edge">
<title>ListaComponent&#45;&gt;AppModule</title>
<path fill="none" stroke="#000000" d="M348,-122.027C348,-138.3976 348,-160 348,-160 348,-160 526.0819,-160 526.0819,-160"/>
<polygon fill="#000000" stroke="#000000" points="526.0819,-163.5001 536.0819,-160 526.0819,-156.5001 526.0819,-163.5001"/>
</g>
<!-- AppComponent  -->
<g id="node10" class="node">
<title>AppComponent </title>
<polygon fill="#80b1d3" stroke="#000000" points="632.439,-252 523.561,-252 523.561,-216 632.439,-216 632.439,-252"/>
<text text-anchor="middle" x="578" y="-229.8" font-family="Times,serif" font-size="14.00" fill="#000000">AppComponent </text>
</g>
<!-- AppModule&#45;&gt;AppComponent  -->
<g id="edge9" class="edge">
<title>AppModule&#45;&gt;AppComponent </title>
<path fill="none" stroke="#000000" stroke-dasharray="1,5" d="M578,-187.1061C578,-187.1061 578,-205.991 578,-205.991"/>
<polygon fill="#000000" stroke="#000000" points="574.5001,-205.9909 578,-215.991 581.5001,-205.991 574.5001,-205.9909"/>
</g>
<!-- AppRoutingModule -->
<g id="node8" class="node">
<title>AppRoutingModule</title>
<polygon fill="#8dd3c7" stroke="#000000" points="269.2744,-122 266.2744,-126 245.2744,-126 242.2744,-122 140.7256,-122 140.7256,-86 269.2744,-86 269.2744,-122"/>
<text text-anchor="middle" x="205" y="-99.8" font-family="Times,serif" font-size="14.00" fill="#000000">AppRoutingModule</text>
</g>
<!-- AppRoutingModule&#45;&gt;AppModule -->
<g id="edge7" class="edge">
<title>AppRoutingModule&#45;&gt;AppModule</title>
<path fill="none" stroke="#000000" d="M205,-122.1061C205,-141.3391 205,-169 205,-169 205,-169 526.2979,-169 526.2979,-169"/>
<polygon fill="#000000" stroke="#000000" points="526.2979,-172.5001 536.2979,-169 526.2979,-165.5001 526.2979,-172.5001"/>
</g>
<!-- SharedModule -->
<g id="node9" class="node">
<title>SharedModule</title>
<polygon fill="#8dd3c7" stroke="#000000" points="122.4231,-122 119.4231,-126 98.4231,-126 95.4231,-122 23.5769,-122 23.5769,-86 122.4231,-86 122.4231,-122"/>
<text text-anchor="middle" x="73" y="-99.8" font-family="Times,serif" font-size="14.00" fill="#000000">SharedModule</text>
</g>
<!-- SharedModule&#45;&gt;AppModule -->
<g id="edge8" class="edge">
<title>SharedModule&#45;&gt;AppModule</title>
<path fill="none" stroke="#000000" d="M73,-122.2921C73,-144.2057 73,-178 73,-178 73,-178 526.2441,-178 526.2441,-178"/>
<polygon fill="#000000" stroke="#000000" points="526.2441,-181.5001 536.2441,-178 526.2441,-174.5001 526.2441,-181.5001"/>
</g>
</g>
</svg>
