<?xml version="1.0" encoding="UTF-8" standalone="no"?>
<!DOCTYPE svg PUBLIC "-//W3C//DTD SVG 1.1//EN"
 "http://www.w3.org/Graphics/SVG/1.1/DTD/svg11.dtd">
<!-- Generated by graphviz version 2.40.1 (20161225.0304)
 -->
<!-- Title: dependencies Pages: 1 -->
<svg width="3985pt" height="290pt"
 viewBox="0.00 0.00 3985.00 290.00" xmlns="http://www.w3.org/2000/svg" xmlns:xlink="http://www.w3.org/1999/xlink">
<g id="graph0" class="graph" transform="scale(1 1) rotate(0) translate(4 286)">
<title>dependencies</title>
<polygon fill="#ffffff" stroke="transparent" points="-4,4 -4,-286 3981,-286 3981,4 -4,4"/>
<text text-anchor="start" x="1967.5091" y="-42.4" font-family="sans-serif" font-weight="bold" font-size="14.00" fill="#000000">Legend</text>
<polygon fill="#ffffb3" stroke="transparent" points="1754.5,-10 1754.5,-30 1774.5,-30 1774.5,-10 1754.5,-10"/>
<text text-anchor="start" x="1778.129" y="-15.4" font-family="sans-serif" font-size="14.00" fill="#000000"> &#160;Declarations</text>
<polygon fill="#8dd3c7" stroke="transparent" points="1867.5,-10 1867.5,-30 1887.5,-30 1887.5,-10 1867.5,-10"/>
<text text-anchor="start" x="1891.2251" y="-15.4" font-family="sans-serif" font-size="14.00" fill="#000000"> &#160;Module</text>
<polygon fill="#80b1d3" stroke="transparent" points="1953.5,-10 1953.5,-30 1973.5,-30 1973.5,-10 1953.5,-10"/>
<text text-anchor="start" x="1977.2812" y="-15.4" font-family="sans-serif" font-size="14.00" fill="#000000"> &#160;Bootstrap</text>
<polygon fill="#fdb462" stroke="transparent" points="2050.5,-10 2050.5,-30 2070.5,-30 2070.5,-10 2050.5,-10"/>
<text text-anchor="start" x="2074.1732" y="-15.4" font-family="sans-serif" font-size="14.00" fill="#000000"> &#160;Providers</text>
<polygon fill="#fb8072" stroke="transparent" points="2146.5,-10 2146.5,-30 2166.5,-30 2166.5,-10 2146.5,-10"/>
<text text-anchor="start" x="2170.2258" y="-15.4" font-family="sans-serif" font-size="14.00" fill="#000000"> &#160;Exports</text>
<g id="clust1" class="cluster">
<title>cluster_AppModule</title>
<polygon fill="none" stroke="#000000" stroke-dasharray="1,5" points="8,-70 8,-274 1208,-274 1208,-70 8,-70"/>
</g>
<g id="clust2" class="cluster">
<title>cluster_AppModule_declarations</title>
<polygon fill="none" stroke="#000000" points="16,-78 16,-130 931,-130 931,-78 16,-78"/>
</g>
<g id="clust9" class="cluster">
<title>cluster_AppModule_imports</title>
<polygon fill="none" stroke="#000000" points="939,-78 939,-130 1200,-130 1200,-78 939,-78"/>
</g>
<g id="clust11" class="cluster">
<title>cluster_AppModule_bootstrap</title>
<polygon fill="none" stroke="#000000" points="559,-214 559,-266 683,-266 683,-214 559,-214"/>
</g>
<g id="clust19" class="cluster">
<title>cluster_CardsModule</title>
<polygon fill="none" stroke="#000000" stroke-dasharray="1,5" points="1787,-70 1787,-198 2095,-198 2095,-70 1787,-70"/>
</g>
<g id="clust20" class="cluster">
<title>cluster_CardsModule_declarations</title>
<polygon fill="none" stroke="#000000" points="1957,-78 1957,-130 2087,-130 2087,-78 1957,-78"/>
</g>
<g id="clust22" class="cluster">
<title>cluster_CardsModule_imports</title>
<polygon fill="none" stroke="#000000" points="1795,-78 1795,-130 1949,-130 1949,-78 1795,-78"/>
</g>
<g id="clust32" class="cluster">
<title>cluster_FeedbackModule</title>
<polygon fill="none" stroke="#000000" stroke-dasharray="1,5" points="2103,-70 2103,-198 2451,-198 2451,-70 2103,-70"/>
</g>
<g id="clust33" class="cluster">
<title>cluster_FeedbackModule_declarations</title>
<polygon fill="none" stroke="#000000" points="2293,-78 2293,-130 2443,-130 2443,-78 2293,-78"/>
</g>
<g id="clust35" class="cluster">
<title>cluster_FeedbackModule_imports</title>
<polygon fill="none" stroke="#000000" points="2111,-78 2111,-130 2285,-130 2285,-78 2111,-78"/>
</g>
<g id="clust45" class="cluster">
<title>cluster_HomeModule</title>
<polygon fill="none" stroke="#000000" stroke-dasharray="1,5" points="2459,-70 2459,-198 2921,-198 2921,-70 2459,-70"/>
</g>
<g id="clust46" class="cluster">
<title>cluster_HomeModule_declarations</title>
<polygon fill="none" stroke="#000000" points="2629,-78 2629,-130 2913,-130 2913,-78 2629,-78"/>
</g>
<g id="clust49" class="cluster">
<title>cluster_HomeModule_imports</title>
<polygon fill="none" stroke="#000000" points="2467,-78 2467,-130 2621,-130 2621,-78 2467,-78"/>
</g>
<g id="clust59" class="cluster">
<title>cluster_LoginModule</title>
<polygon fill="none" stroke="#000000" stroke-dasharray="1,5" points="2929,-70 2929,-198 3237,-198 3237,-70 2929,-70"/>
</g>
<g id="clust60" class="cluster">
<title>cluster_LoginModule_declarations</title>
<polygon fill="none" stroke="#000000" points="3099,-78 3099,-130 3229,-130 3229,-78 3099,-78"/>
</g>
<g id="clust62" class="cluster">
<title>cluster_LoginModule_imports</title>
<polygon fill="none" stroke="#000000" points="2937,-78 2937,-130 3091,-130 3091,-78 2937,-78"/>
</g>
<g id="clust72" class="cluster">
<title>cluster_ProfiloModule</title>
<polygon fill="none" stroke="#000000" stroke-dasharray="1,5" points="3245,-70 3245,-198 3565,-198 3565,-70 3245,-70"/>
</g>
<g id="clust73" class="cluster">
<title>cluster_ProfiloModule_declarations</title>
<polygon fill="none" stroke="#000000" points="3421,-78 3421,-130 3557,-130 3557,-78 3421,-78"/>
</g>
<g id="clust75" class="cluster">
<title>cluster_ProfiloModule_imports</title>
<polygon fill="none" stroke="#000000" points="3253,-78 3253,-130 3413,-130 3413,-78 3253,-78"/>
</g>
<g id="clust85" class="cluster">
<title>cluster_RegistrazioneModule</title>
<polygon fill="none" stroke="#000000" stroke-dasharray="1,5" points="3573,-70 3573,-198 3969,-198 3969,-70 3573,-70"/>
</g>
<g id="clust86" class="cluster">
<title>cluster_RegistrazioneModule_declarations</title>
<polygon fill="none" stroke="#000000" points="3787,-78 3787,-130 3961,-130 3961,-78 3787,-78"/>
</g>
<g id="clust88" class="cluster">
<title>cluster_RegistrazioneModule_imports</title>
<polygon fill="none" stroke="#000000" points="3581,-78 3581,-130 3779,-130 3779,-78 3581,-78"/>
</g>
<g id="clust98" class="cluster">
<title>cluster_SharedModule</title>
<polygon fill="none" stroke="#000000" stroke-dasharray="1,5" points="1216,-138 1216,-206 1779,-206 1779,-138 1216,-138"/>
</g>
<g id="clust99" class="cluster">
<title>cluster_SharedModule_declarations</title>
<polygon fill="none" stroke="#000000" points="1505,-146 1505,-198 1771,-198 1771,-146 1505,-146"/>
</g>
<g id="clust103" class="cluster">
<title>cluster_SharedModule_exports</title>
<polygon fill="none" stroke="#000000" points="1224,-146 1224,-198 1497,-198 1497,-146 1224,-146"/>
</g>
<!-- AppComponent -->
<g id="node1" class="node">
<title>AppComponent</title>
<polygon fill="#ffffb3" stroke="#000000" points="922.9399,-122 817.0601,-122 817.0601,-86 922.9399,-86 922.9399,-122"/>
<text text-anchor="middle" x="870" y="-99.8" font-family="Times,serif" font-size="14.00" fill="#000000">AppComponent</text>
</g>
<!-- AppModule -->
<g id="node7" class="node">
<title>AppModule</title>
<polygon fill="#8dd3c7" stroke="#000000" points="662.6571,-190 659.6571,-194 638.6571,-194 635.6571,-190 579.3429,-190 579.3429,-154 662.6571,-154 662.6571,-190"/>
<text text-anchor="middle" x="621" y="-167.8" font-family="Times,serif" font-size="14.00" fill="#000000">AppModule</text>
</g>
<!-- AppComponent&#45;&gt;AppModule -->
<g id="edge1" class="edge">
<title>AppComponent&#45;&gt;AppModule</title>
<path fill="none" stroke="#000000" d="M870,-122.0336C870,-139.0597 870,-162 870,-162 870,-162 672.677,-162 672.677,-162"/>
<polygon fill="#000000" stroke="#000000" points="672.677,-158.5001 662.677,-162 672.677,-165.5001 672.677,-158.5001"/>
</g>
<!-- BetaPlayCanzoneComponent -->
<g id="node2" class="node">
<title>BetaPlayCanzoneComponent</title>
<polygon fill="#ffffb3" stroke="#000000" points="799.3571,-122 618.6429,-122 618.6429,-86 799.3571,-86 799.3571,-122"/>
<text text-anchor="middle" x="709" y="-99.8" font-family="Times,serif" font-size="14.00" fill="#000000">BetaPlayCanzoneComponent</text>
</g>
<!-- BetaPlayCanzoneComponent&#45;&gt;AppModule -->
<g id="edge2" class="edge">
<title>BetaPlayCanzoneComponent&#45;&gt;AppModule</title>
<path fill="none" stroke="#000000" d="M640.6999,-122.2228C640.6999,-122.2228 640.6999,-143.7269 640.6999,-143.7269"/>
<polygon fill="#000000" stroke="#000000" points="637.1999,-143.7269 640.6999,-153.7269 644.1999,-143.727 637.1999,-143.7269"/>
</g>
<!-- DettaglioComponent -->
<g id="node3" class="node">
<title>DettaglioComponent</title>
<polygon fill="#ffffb3" stroke="#000000" points="600.9313,-122 467.0687,-122 467.0687,-86 600.9313,-86 600.9313,-122"/>
<text text-anchor="middle" x="534" y="-99.8" font-family="Times,serif" font-size="14.00" fill="#000000">DettaglioComponent</text>
</g>
<!-- DettaglioComponent&#45;&gt;AppModule -->
<g id="edge3" class="edge">
<title>DettaglioComponent&#45;&gt;AppModule</title>
<path fill="none" stroke="#000000" d="M589.9436,-122.2228C589.9436,-122.2228 589.9436,-143.7269 589.9436,-143.7269"/>
<polygon fill="#000000" stroke="#000000" points="586.4436,-143.7269 589.9436,-153.7269 593.4436,-143.727 586.4436,-143.7269"/>
</g>
<!-- HighlightDirective -->
<g id="node4" class="node">
<title>HighlightDirective</title>
<polygon fill="#ffffb3" stroke="#000000" points="448.7521,-122 327.2479,-122 327.2479,-86 448.7521,-86 448.7521,-122"/>
<text text-anchor="middle" x="388" y="-99.8" font-family="Times,serif" font-size="14.00" fill="#000000">HighlightDirective</text>
</g>
<!-- HighlightDirective&#45;&gt;AppModule -->
<g id="edge4" class="edge">
<title>HighlightDirective&#45;&gt;AppModule</title>
<path fill="none" stroke="#000000" d="M388,-122.0225C388,-139.3734 388,-163 388,-163 388,-163 569.0752,-163 569.0752,-163"/>
<polygon fill="#000000" stroke="#000000" points="569.0752,-166.5001 579.0752,-163 569.0751,-159.5001 569.0752,-166.5001"/>
</g>
<!-- ImageUploadComponent -->
<g id="node5" class="node">
<title>ImageUploadComponent</title>
<polygon fill="#ffffb3" stroke="#000000" points="308.5253,-122 151.4747,-122 151.4747,-86 308.5253,-86 308.5253,-122"/>
<text text-anchor="middle" x="230" y="-99.8" font-family="Times,serif" font-size="14.00" fill="#000000">ImageUploadComponent</text>
</g>
<!-- ImageUploadComponent&#45;&gt;AppModule -->
<g id="edge5" class="edge">
<title>ImageUploadComponent&#45;&gt;AppModule</title>
<path fill="none" stroke="#000000" d="M230,-122.2228C230,-142.3652 230,-172 230,-172 230,-172 569.1562,-172 569.1562,-172"/>
<polygon fill="#000000" stroke="#000000" points="569.1562,-175.5001 579.1562,-172 569.1561,-168.5001 569.1562,-175.5001"/>
</g>
<!-- ListaComponent -->
<g id="node6" class="node">
<title>ListaComponent</title>
<polygon fill="#ffffb3" stroke="#000000" points="133.8259,-122 24.1741,-122 24.1741,-86 133.8259,-86 133.8259,-122"/>
<text text-anchor="middle" x="79" y="-99.8" font-family="Times,serif" font-size="14.00" fill="#000000">ListaComponent</text>
</g>
<!-- ListaComponent&#45;&gt;AppModule -->
<g id="edge6" class="edge">
<title>ListaComponent&#45;&gt;AppModule</title>
<path fill="none" stroke="#000000" d="M79,-122.2479C79,-145.0179 79,-181 79,-181 79,-181 568.9212,-181 568.9212,-181"/>
<polygon fill="#000000" stroke="#000000" points="568.9212,-184.5001 578.9212,-181 568.9211,-177.5001 568.9212,-184.5001"/>
</g>
<!-- AppComponent  -->
<g id="node10" class="node">
<title>AppComponent </title>
<polygon fill="#80b1d3" stroke="#000000" points="675.439,-258 566.561,-258 566.561,-222 675.439,-222 675.439,-258"/>
<text text-anchor="middle" x="621" y="-235.8" font-family="Times,serif" font-size="14.00" fill="#000000">AppComponent </text>
</g>
<!-- AppModule&#45;&gt;AppComponent  -->
<g id="edge9" class="edge">
<title>AppModule&#45;&gt;AppComponent </title>
<path fill="none" stroke="#000000" stroke-dasharray="1,5" d="M621,-190.2228C621,-190.2228 621,-211.7269 621,-211.7269"/>
<polygon fill="#000000" stroke="#000000" points="617.5001,-211.7269 621,-221.7269 624.5001,-211.727 617.5001,-211.7269"/>
</g>
<!-- AppRoutingModule -->
<g id="node8" class="node">
<title>AppRoutingModule</title>
<polygon fill="#8dd3c7" stroke="#000000" points="1075.2744,-122 1072.2744,-126 1051.2744,-126 1048.2744,-122 946.7256,-122 946.7256,-86 1075.2744,-86 1075.2744,-122"/>
<text text-anchor="middle" x="1011" y="-99.8" font-family="Times,serif" font-size="14.00" fill="#000000">AppRoutingModule</text>
</g>
<!-- AppRoutingModule&#45;&gt;AppModule -->
<g id="edge7" class="edge">
<title>AppRoutingModule&#45;&gt;AppModule</title>
<path fill="none" stroke="#000000" d="M1011,-122.1061C1011,-141.3391 1011,-169 1011,-169 1011,-169 672.7368,-169 672.7368,-169"/>
<polygon fill="#000000" stroke="#000000" points="672.7369,-165.5001 662.7368,-169 672.7368,-172.5001 672.7369,-165.5001"/>
</g>
<!-- SharedModule -->
<g id="node9" class="node">
<title>SharedModule</title>
<polygon fill="#8dd3c7" stroke="#000000" points="1192.4231,-122 1189.4231,-126 1168.4231,-126 1165.4231,-122 1093.5769,-122 1093.5769,-86 1192.4231,-86 1192.4231,-122"/>
<text text-anchor="middle" x="1143" y="-99.8" font-family="Times,serif" font-size="14.00" fill="#000000">SharedModule</text>
</g>
<!-- SharedModule&#45;&gt;AppModule -->
<g id="edge8" class="edge">
<title>SharedModule&#45;&gt;AppModule</title>
<path fill="none" stroke="#000000" d="M1167.6056,-122.1686C1167.6056,-143.498 1167.6056,-176 1167.6056,-176 1167.6056,-176 672.9836,-176 672.9836,-176"/>
<polygon fill="#000000" stroke="#000000" points="672.9836,-172.5001 662.9836,-176 672.9836,-179.5001 672.9836,-172.5001"/>
</g>
<!-- CardsModule -->
<g id="node12" class="node">
<title>CardsModule</title>
<polygon fill="#8dd3c7" stroke="#000000" points="1918.2064,-190 1915.2064,-194 1894.2064,-194 1891.2064,-190 1825.7936,-190 1825.7936,-154 1918.2064,-154 1918.2064,-190"/>
<text text-anchor="middle" x="1872" y="-167.8" font-family="Times,serif" font-size="14.00" fill="#000000">CardsModule</text>
</g>
<!-- SharedModule&#45;&gt;CardsModule -->
<g id="edge12" class="edge">
<title>SharedModule&#45;&gt;CardsModule</title>
<path fill="none" stroke="#000000" d="M1192.4326,-92C1342.583,-92 1783.1392,-92 1783.1392,-92 1783.1392,-92 1783.1392,-172 1783.1392,-172 1783.1392,-172 1815.7477,-172 1815.7477,-172"/>
<polygon fill="#000000" stroke="#000000" points="1815.7477,-175.5001 1825.7477,-172 1815.7477,-168.5001 1815.7477,-175.5001"/>
</g>
<!-- FeedbackModule -->
<g id="node15" class="node">
<title>FeedbackModule</title>
<polygon fill="#8dd3c7" stroke="#000000" points="2254.691,-190 2251.691,-194 2230.691,-194 2227.691,-190 2141.309,-190 2141.309,-154 2254.691,-154 2254.691,-190"/>
<text text-anchor="middle" x="2198" y="-167.8" font-family="Times,serif" font-size="14.00" fill="#000000">FeedbackModule</text>
</g>
<!-- SharedModule&#45;&gt;FeedbackModule -->
<g id="edge15" class="edge">
<title>SharedModule&#45;&gt;FeedbackModule</title>
<path fill="none" stroke="#000000" d="M1106.0917,-122.0439C1106.0917,-134.5633 1106.0917,-149 1106.0917,-149 1106.0917,-149 2179.1349,-149 2179.1349,-149 2179.1349,-149 2179.1349,-149.4878 2179.1349,-149.4878"/>
<polygon fill="#000000" stroke="#000000" points="2175.6351,-143.8776 2179.1349,-153.8777 2182.6351,-143.8778 2175.6351,-143.8776"/>
</g>
<!-- HomeModule -->
<g id="node19" class="node">
<title>HomeModule</title>
<polygon fill="#8dd3c7" stroke="#000000" points="2665.7619,-190 2662.7619,-194 2641.7619,-194 2638.7619,-190 2572.2381,-190 2572.2381,-154 2665.7619,-154 2665.7619,-190"/>
<text text-anchor="middle" x="2619" y="-167.8" font-family="Times,serif" font-size="14.00" fill="#000000">HomeModule</text>
</g>
<!-- SharedModule&#45;&gt;HomeModule -->
<g id="edge19" class="edge">
<title>SharedModule&#45;&gt;HomeModule</title>
<path fill="none" stroke="#000000" d="M1118.3945,-122.1274C1118.3945,-132.7109 1118.3945,-144 1118.3945,-144 1118.3945,-144 2585.8927,-144 2585.8927,-144 2585.8927,-144 2585.8927,-144.9793 2585.8927,-144.9793"/>
<polygon fill="#000000" stroke="#000000" points="2582.3928,-143.793 2585.8927,-153.793 2589.3928,-143.7931 2582.3928,-143.793"/>
</g>
<!-- LoginModule -->
<g id="node22" class="node">
<title>LoginModule</title>
<polygon fill="#8dd3c7" stroke="#000000" points="3060.493,-190 3057.493,-194 3036.493,-194 3033.493,-190 2967.507,-190 2967.507,-154 3060.493,-154 3060.493,-190"/>
<text text-anchor="middle" x="3014" y="-167.8" font-family="Times,serif" font-size="14.00" fill="#000000">LoginModule</text>
</g>
<!-- SharedModule&#45;&gt;LoginModule -->
<g id="edge22" class="edge">
<title>SharedModule&#45;&gt;LoginModule</title>
<path fill="none" stroke="#000000" d="M1130.6972,-122.1944C1130.6972,-130.2782 1130.6972,-138 1130.6972,-138 1130.6972,-138 2998.5012,-138 2998.5012,-138 2998.5012,-138 2998.5012,-143.8056 2998.5012,-143.8056"/>
<polygon fill="#000000" stroke="#000000" points="2995.0013,-143.8055 2998.5012,-153.8056 3002.0013,-143.8056 2995.0013,-143.8055"/>
</g>
<!-- ProfiloModule -->
<g id="node25" class="node">
<title>ProfiloModule</title>
<polygon fill="#8dd3c7" stroke="#000000" points="3382.4358,-190 3379.4358,-194 3358.4358,-194 3355.4358,-190 3283.5642,-190 3283.5642,-154 3382.4358,-154 3382.4358,-190"/>
<text text-anchor="middle" x="3333" y="-167.8" font-family="Times,serif" font-size="14.00" fill="#000000">ProfiloModule</text>
</g>
<!-- SharedModule&#45;&gt;ProfiloModule -->
<g id="edge25" class="edge">
<title>SharedModule&#45;&gt;ProfiloModule</title>
<path fill="none" stroke="#000000" d="M1143,-122.2015C1143,-128.028 1143,-133 1143,-133 1143,-133 3316.5942,-133 3316.5942,-133 3316.5942,-133 3316.5942,-143.8701 3316.5942,-143.8701"/>
<polygon fill="#000000" stroke="#000000" points="3313.0943,-143.8701 3316.5942,-153.8701 3320.0943,-143.8701 3313.0943,-143.8701"/>
</g>
<!-- RegistrazioneModule -->
<g id="node28" class="node">
<title>RegistrazioneModule</title>
<polygon fill="#8dd3c7" stroke="#000000" points="3748.0226,-190 3745.0226,-194 3724.0226,-194 3721.0226,-190 3611.9774,-190 3611.9774,-154 3748.0226,-154 3748.0226,-190"/>
<text text-anchor="middle" x="3680" y="-167.8" font-family="Times,serif" font-size="14.00" fill="#000000">RegistrazioneModule</text>
</g>
<!-- SharedModule&#45;&gt;RegistrazioneModule -->
<g id="edge28" class="edge">
<title>SharedModule&#45;&gt;RegistrazioneModule</title>
<path fill="none" stroke="#000000" d="M1155.3028,-122.1903C1155.3028,-125.5376 1155.3028,-128 1155.3028,-128 1155.3028,-128 3657.2464,-128 3657.2464,-128 3657.2464,-128 3657.2464,-143.8495 3657.2464,-143.8495"/>
<polygon fill="#000000" stroke="#000000" points="3653.7465,-143.8494 3657.2464,-153.8495 3660.7465,-143.8495 3653.7465,-143.8494"/>
</g>
<!-- FooterComponent  -->
<g id="node32" class="node">
<title>FooterComponent </title>
<polygon fill="#fb8072" stroke="#000000" points="1488.8814,-190 1367.1186,-190 1367.1186,-154 1488.8814,-154 1488.8814,-190"/>
<text text-anchor="middle" x="1428" y="-167.8" font-family="Times,serif" font-size="14.00" fill="#000000">FooterComponent </text>
</g>
<!-- SharedModule&#45;&gt;FooterComponent  -->
<g id="edge32" class="edge">
<title>SharedModule&#45;&gt;FooterComponent </title>
<path fill="none" stroke="#000000" stroke-dasharray="5,2" d="M1192.3797,-112C1278.7665,-112 1448.2301,-112 1448.2301,-112 1448.2301,-112 1448.2301,-143.998 1448.2301,-143.998"/>
<polygon fill="#000000" stroke="#000000" points="1444.7302,-143.998 1448.2301,-153.998 1451.7302,-143.9981 1444.7302,-143.998"/>
</g>
<!-- SharedModule&#45;&gt;FooterComponent  -->
<g id="edge33" class="edge">
<title>SharedModule&#45;&gt;FooterComponent </title>
<path fill="none" stroke="#000000" stroke-dasharray="5,2" d="M1192.4906,-117C1269.1246,-117 1407.7699,-117 1407.7699,-117 1407.7699,-117 1407.7699,-143.9909 1407.7699,-143.9909"/>
<polygon fill="#000000" stroke="#000000" points="1404.27,-143.9909 1407.7699,-153.9909 1411.27,-143.991 1404.27,-143.9909"/>
</g>
<!-- MenuComponent  -->
<g id="node33" class="node">
<title>MenuComponent </title>
<polygon fill="#fb8072" stroke="#000000" points="1349.9926,-190 1232.0074,-190 1232.0074,-154 1349.9926,-154 1349.9926,-190"/>
<text text-anchor="middle" x="1291" y="-167.8" font-family="Times,serif" font-size="14.00" fill="#000000">MenuComponent </text>
</g>
<!-- SharedModule&#45;&gt;MenuComponent  -->
<g id="edge34" class="edge">
<title>SharedModule&#45;&gt;MenuComponent </title>
<path fill="none" stroke="#000000" stroke-dasharray="5,2" d="M1179.9083,-122.3228C1179.9083,-145.6602 1179.9083,-183 1179.9083,-183 1179.9083,-183 1222.2012,-183 1222.2012,-183"/>
<polygon fill="#000000" stroke="#000000" points="1222.2012,-186.5001 1232.2012,-183 1222.2011,-179.5001 1222.2012,-186.5001"/>
</g>
<!-- CardsComponent -->
<g id="node11" class="node">
<title>CardsComponent</title>
<polygon fill="#ffffb3" stroke="#000000" points="2078.9888,-122 1965.0112,-122 1965.0112,-86 2078.9888,-86 2078.9888,-122"/>
<text text-anchor="middle" x="2022" y="-99.8" font-family="Times,serif" font-size="14.00" fill="#000000">CardsComponent</text>
</g>
<!-- CardsComponent&#45;&gt;CardsModule -->
<g id="edge10" class="edge">
<title>CardsComponent&#45;&gt;CardsModule</title>
<path fill="none" stroke="#000000" d="M2022,-122.2228C2022,-142.3652 2022,-172 2022,-172 2022,-172 1928.2289,-172 1928.2289,-172"/>
<polygon fill="#000000" stroke="#000000" points="1928.2289,-168.5001 1918.2289,-172 1928.2289,-175.5001 1928.2289,-168.5001"/>
</g>
<!-- CardsRoutingModule -->
<g id="node13" class="node">
<title>CardsRoutingModule</title>
<polygon fill="#8dd3c7" stroke="#000000" points="1940.8244,-122 1937.8244,-126 1916.8244,-126 1913.8244,-122 1803.1756,-122 1803.1756,-86 1940.8244,-86 1940.8244,-122"/>
<text text-anchor="middle" x="1872" y="-99.8" font-family="Times,serif" font-size="14.00" fill="#000000">CardsRoutingModule</text>
</g>
<!-- CardsRoutingModule&#45;&gt;CardsModule -->
<g id="edge11" class="edge">
<title>CardsRoutingModule&#45;&gt;CardsModule</title>
<path fill="none" stroke="#000000" d="M1872,-122.2228C1872,-122.2228 1872,-143.7269 1872,-143.7269"/>
<polygon fill="#000000" stroke="#000000" points="1868.5001,-143.7269 1872,-153.7269 1875.5001,-143.727 1868.5001,-143.7269"/>
</g>
<!-- FeedbackComponent -->
<g id="node14" class="node">
<title>FeedbackComponent</title>
<polygon fill="#ffffb3" stroke="#000000" points="2435.4734,-122 2300.5266,-122 2300.5266,-86 2435.4734,-86 2435.4734,-122"/>
<text text-anchor="middle" x="2368" y="-99.8" font-family="Times,serif" font-size="14.00" fill="#000000">FeedbackComponent</text>
</g>
<!-- FeedbackComponent&#45;&gt;FeedbackModule -->
<g id="edge13" class="edge">
<title>FeedbackComponent&#45;&gt;FeedbackModule</title>
<path fill="none" stroke="#000000" d="M2368,-122.2228C2368,-142.3652 2368,-172 2368,-172 2368,-172 2264.6075,-172 2264.6075,-172"/>
<polygon fill="#000000" stroke="#000000" points="2264.6076,-168.5001 2254.6075,-172 2264.6075,-175.5001 2264.6076,-168.5001"/>
</g>
<!-- FeedbackRoutingModule -->
<g id="node16" class="node">
<title>FeedbackRoutingModule</title>
<polygon fill="#8dd3c7" stroke="#000000" points="2277.3089,-122 2274.3089,-126 2253.3089,-126 2250.3089,-122 2118.6911,-122 2118.6911,-86 2277.3089,-86 2277.3089,-122"/>
<text text-anchor="middle" x="2198" y="-99.8" font-family="Times,serif" font-size="14.00" fill="#000000">FeedbackRoutingModule</text>
</g>
<!-- FeedbackRoutingModule&#45;&gt;FeedbackModule -->
<g id="edge14" class="edge">
<title>FeedbackRoutingModule&#45;&gt;FeedbackModule</title>
<path fill="none" stroke="#000000" d="M2216.8651,-122.2228C2216.8651,-122.2228 2216.8651,-143.7269 2216.8651,-143.7269"/>
<polygon fill="#000000" stroke="#000000" points="2213.3652,-143.7269 2216.8651,-153.7269 2220.3652,-143.727 2213.3652,-143.7269"/>
</g>
<!-- CaroselloComponent -->
<g id="node17" class="node">
<title>CaroselloComponent</title>
<polygon fill="#ffffb3" stroke="#000000" points="2905.4846,-122 2770.5154,-122 2770.5154,-86 2905.4846,-86 2905.4846,-122"/>
<text text-anchor="middle" x="2838" y="-99.8" font-family="Times,serif" font-size="14.00" fill="#000000">CaroselloComponent</text>
</g>
<!-- CaroselloComponent&#45;&gt;HomeModule -->
<g id="edge16" class="edge">
<title>CaroselloComponent&#45;&gt;HomeModule</title>
<path fill="none" stroke="#000000" d="M2838,-122.2228C2838,-142.3652 2838,-172 2838,-172 2838,-172 2675.981,-172 2675.981,-172"/>
<polygon fill="#000000" stroke="#000000" points="2675.981,-168.5001 2665.981,-172 2675.981,-175.5001 2675.981,-168.5001"/>
</g>
<!-- HomeComponent -->
<g id="node18" class="node">
<title>HomeComponent</title>
<polygon fill="#ffffb3" stroke="#000000" points="2752.5451,-122 2637.4549,-122 2637.4549,-86 2752.5451,-86 2752.5451,-122"/>
<text text-anchor="middle" x="2695" y="-99.8" font-family="Times,serif" font-size="14.00" fill="#000000">HomeComponent</text>
</g>
<!-- HomeComponent&#45;&gt;HomeModule -->
<g id="edge17" class="edge">
<title>HomeComponent&#45;&gt;HomeModule</title>
<path fill="none" stroke="#000000" d="M2651.5544,-122.2228C2651.5544,-122.2228 2651.5544,-143.7269 2651.5544,-143.7269"/>
<polygon fill="#000000" stroke="#000000" points="2648.0544,-143.7269 2651.5544,-153.7269 2655.0544,-143.727 2648.0544,-143.7269"/>
</g>
<!-- HomeRoutingModule -->
<g id="node20" class="node">
<title>HomeRoutingModule</title>
<polygon fill="#8dd3c7" stroke="#000000" points="2613.3795,-122 2610.3795,-126 2589.3795,-126 2586.3795,-122 2474.6205,-122 2474.6205,-86 2613.3795,-86 2613.3795,-122"/>
<text text-anchor="middle" x="2544" y="-99.8" font-family="Times,serif" font-size="14.00" fill="#000000">HomeRoutingModule</text>
</g>
<!-- HomeRoutingModule&#45;&gt;HomeModule -->
<g id="edge18" class="edge">
<title>HomeRoutingModule&#45;&gt;HomeModule</title>
<path fill="none" stroke="#000000" d="M2599.6662,-122.2228C2599.6662,-122.2228 2599.6662,-143.7269 2599.6662,-143.7269"/>
<polygon fill="#000000" stroke="#000000" points="2596.1663,-143.7269 2599.6662,-153.7269 2603.1663,-143.727 2596.1663,-143.7269"/>
</g>
<!-- LoginComponent -->
<g id="node21" class="node">
<title>LoginComponent</title>
<polygon fill="#ffffb3" stroke="#000000" points="3221.2758,-122 3106.7242,-122 3106.7242,-86 3221.2758,-86 3221.2758,-122"/>
<text text-anchor="middle" x="3164" y="-99.8" font-family="Times,serif" font-size="14.00" fill="#000000">LoginComponent</text>
</g>
<!-- LoginComponent&#45;&gt;LoginModule -->
<g id="edge20" class="edge">
<title>LoginComponent&#45;&gt;LoginModule</title>
<path fill="none" stroke="#000000" d="M3164,-122.2228C3164,-142.3652 3164,-172 3164,-172 3164,-172 3070.6387,-172 3070.6387,-172"/>
<polygon fill="#000000" stroke="#000000" points="3070.6387,-168.5001 3060.6387,-172 3070.6387,-175.5001 3070.6387,-168.5001"/>
</g>
<!-- LoginRoutingModule -->
<g id="node23" class="node">
<title>LoginRoutingModule</title>
<polygon fill="#8dd3c7" stroke="#000000" points="3083.1108,-122 3080.1108,-126 3059.1108,-126 3056.1108,-122 2944.8892,-122 2944.8892,-86 3083.1108,-86 3083.1108,-122"/>
<text text-anchor="middle" x="3014" y="-99.8" font-family="Times,serif" font-size="14.00" fill="#000000">LoginRoutingModule</text>
</g>
<!-- LoginRoutingModule&#45;&gt;LoginModule -->
<g id="edge21" class="edge">
<title>LoginRoutingModule&#45;&gt;LoginModule</title>
<path fill="none" stroke="#000000" d="M3029.4988,-122.2228C3029.4988,-122.2228 3029.4988,-143.7269 3029.4988,-143.7269"/>
<polygon fill="#000000" stroke="#000000" points="3025.9989,-143.7269 3029.4988,-153.7269 3032.9989,-143.727 3025.9989,-143.7269"/>
</g>
<!-- ProfiloComponent -->
<g id="node24" class="node">
<title>ProfiloComponent</title>
<polygon fill="#ffffb3" stroke="#000000" points="3549.2176,-122 3428.7824,-122 3428.7824,-86 3549.2176,-86 3549.2176,-122"/>
<text text-anchor="middle" x="3489" y="-99.8" font-family="Times,serif" font-size="14.00" fill="#000000">ProfiloComponent</text>
</g>
<!-- ProfiloComponent&#45;&gt;ProfiloModule -->
<g id="edge23" class="edge">
<title>ProfiloComponent&#45;&gt;ProfiloModule</title>
<path fill="none" stroke="#000000" d="M3489,-122.2228C3489,-142.3652 3489,-172 3489,-172 3489,-172 3392.3594,-172 3392.3594,-172"/>
<polygon fill="#000000" stroke="#000000" points="3392.3594,-168.5001 3382.3594,-172 3392.3593,-175.5001 3392.3594,-168.5001"/>
</g>
<!-- ProfiloRoutingModule -->
<g id="node26" class="node">
<title>ProfiloRoutingModule</title>
<polygon fill="#8dd3c7" stroke="#000000" points="3404.5533,-122 3401.5533,-126 3380.5533,-126 3377.5533,-122 3261.4467,-122 3261.4467,-86 3404.5533,-86 3404.5533,-122"/>
<text text-anchor="middle" x="3333" y="-99.8" font-family="Times,serif" font-size="14.00" fill="#000000">ProfiloRoutingModule</text>
</g>
<!-- ProfiloRoutingModule&#45;&gt;ProfiloModule -->
<g id="edge24" class="edge">
<title>ProfiloRoutingModule&#45;&gt;ProfiloModule</title>
<path fill="none" stroke="#000000" d="M3349.4058,-122.2228C3349.4058,-122.2228 3349.4058,-143.7269 3349.4058,-143.7269"/>
<polygon fill="#000000" stroke="#000000" points="3345.9059,-143.7269 3349.4058,-153.7269 3352.9059,-143.727 3345.9059,-143.7269"/>
</g>
<!-- RegistrazioneComponent -->
<g id="node27" class="node">
<title>RegistrazioneComponent</title>
<polygon fill="#ffffb3" stroke="#000000" points="3953.3047,-122 3794.6953,-122 3794.6953,-86 3953.3047,-86 3953.3047,-122"/>
<text text-anchor="middle" x="3874" y="-99.8" font-family="Times,serif" font-size="14.00" fill="#000000">RegistrazioneComponent</text>
</g>
<!-- RegistrazioneComponent&#45;&gt;RegistrazioneModule -->
<g id="edge26" class="edge">
<title>RegistrazioneComponent&#45;&gt;RegistrazioneModule</title>
<path fill="none" stroke="#000000" d="M3874,-122.2228C3874,-142.3652 3874,-172 3874,-172 3874,-172 3758.1244,-172 3758.1244,-172"/>
<polygon fill="#000000" stroke="#000000" points="3758.1244,-168.5001 3748.1244,-172 3758.1243,-175.5001 3758.1244,-168.5001"/>
</g>
<!-- RegistrazioneRoutingModule -->
<g id="node29" class="node">
<title>RegistrazioneRoutingModule</title>
<polygon fill="#8dd3c7" stroke="#000000" points="3770.64,-122 3767.64,-126 3746.64,-126 3743.64,-122 3589.36,-122 3589.36,-86 3770.64,-86 3770.64,-122"/>
<text text-anchor="middle" x="3680" y="-99.8" font-family="Times,serif" font-size="14.00" fill="#000000">RegistrazioneRoutingModule</text>
</g>
<!-- RegistrazioneRoutingModule&#45;&gt;RegistrazioneModule -->
<g id="edge27" class="edge">
<title>RegistrazioneRoutingModule&#45;&gt;RegistrazioneModule</title>
<path fill="none" stroke="#000000" d="M3702.7536,-122.2228C3702.7536,-122.2228 3702.7536,-143.7269 3702.7536,-143.7269"/>
<polygon fill="#000000" stroke="#000000" points="3699.2537,-143.7269 3702.7536,-153.7269 3706.2537,-143.727 3699.2537,-143.7269"/>
</g>
<!-- FooterComponent -->
<g id="node30" class="node">
<title>FooterComponent</title>
<polygon fill="#ffffb3" stroke="#000000" points="1762.8809,-190 1645.1191,-190 1645.1191,-154 1762.8809,-154 1762.8809,-190"/>
<text text-anchor="middle" x="1704" y="-167.8" font-family="Times,serif" font-size="14.00" fill="#000000">FooterComponent</text>
</g>
<!-- FooterComponent&#45;&gt;SharedModule -->
<g id="edge29" class="edge">
<title>FooterComponent&#45;&gt;SharedModule</title>
<path fill="none" stroke="#000000" d="M1684.3532,-153.9733C1684.3532,-133.2328 1684.3532,-102 1684.3532,-102 1684.3532,-102 1202.4766,-102 1202.4766,-102"/>
<polygon fill="#000000" stroke="#000000" points="1202.4766,-98.5001 1192.4766,-102 1202.4766,-105.5001 1202.4766,-98.5001"/>
</g>
<!-- FooterComponent&#45;&gt;SharedModule -->
<g id="edge30" class="edge">
<title>FooterComponent&#45;&gt;SharedModule</title>
<path fill="none" stroke="#000000" d="M1723.6468,-153.8446C1723.6468,-131.6481 1723.6468,-97 1723.6468,-97 1723.6468,-97 1202.5056,-97 1202.5056,-97"/>
<polygon fill="#000000" stroke="#000000" points="1202.5057,-93.5001 1192.5056,-97 1202.5056,-100.5001 1202.5057,-93.5001"/>
</g>
<!-- MenuComponent -->
<g id="node31" class="node">
<title>MenuComponent</title>
<polygon fill="#ffffb3" stroke="#000000" points="1626.9916,-190 1513.0084,-190 1513.0084,-154 1626.9916,-154 1626.9916,-190"/>
<text text-anchor="middle" x="1570" y="-167.8" font-family="Times,serif" font-size="14.00" fill="#000000">MenuComponent</text>
</g>
<!-- MenuComponent&#45;&gt;SharedModule -->
<g id="edge31" class="edge">
<title>MenuComponent&#45;&gt;SharedModule</title>
<path fill="none" stroke="#000000" d="M1570,-153.8939C1570,-134.6609 1570,-107 1570,-107 1570,-107 1202.3995,-107 1202.3995,-107"/>
<polygon fill="#000000" stroke="#000000" points="1202.3995,-103.5001 1192.3995,-107 1202.3994,-110.5001 1202.3995,-103.5001"/>
</g>
</g>
</svg>
